<svg width="103" height="31" viewBox="0 0 103 31" fill="none" xmlns="http://www.w3.org/2000/svg">
<path d="M33.4579 15.724V17.3C33.4579 19.54 34.449 20.825 36.065 20.825C37.57 20.825 38.304 19.907 38.304 18.365C38.304 16.639 37.387 15.831 35.881 14.987L33.862 13.848C31.438 12.6 29.529 10.837 29.529 6.90905C29.529 2.90905 31.952 0.373047 35.881 0.373047C39.92 0.373047 42.233 2.72305 42.233 7.27305V8.96205H38.194V7.31505C38.194 5.00205 37.423 3.93705 35.881 3.93705C34.481 3.93705 33.751 4.92905 33.751 6.50805C33.7253 7.17295 33.9056 7.82957 34.2671 8.38818C34.6287 8.94679 35.1539 9.38014 35.771 9.62905L37.937 10.804C40.837 12.272 42.601 14.072 42.601 17.817C42.601 22.003 40.067 24.39 36.065 24.39C31.989 24.39 29.455 22.15 29.455 17.413V15.724H33.4579Z" fill="#FFFFFF"/>
<path d="M47.0069 23.9489V4.56192H42.674V0.815918H56V4.56192H51.56V23.9489H47.0069Z" fill="#FFFFFF"/>
<path d="M70.0289 14.072C70.0289 20.644 68.1199 24.39 63.1629 24.39C58.1689 24.39 56.2629 20.644 56.2629 14.072V10.694C56.2629 4.12098 58.1719 0.375977 63.1629 0.375977C68.1199 0.375977 70.0289 4.12098 70.0289 10.694V14.072ZM60.9599 16.312C60.9599 18.992 61.3999 20.681 63.1599 20.681C64.9199 20.681 65.3599 18.992 65.3599 16.312V8.45398C65.3599 5.77298 64.9189 4.08398 63.1599 4.08398C61.4009 4.08398 60.9599 5.77298 60.9599 8.45398V16.312Z" fill="#FFFFFF"/>
<path d="M79.1279 23.9489C79.1279 23.9489 79.1279 21.6589 79.1279 18.7719C79.1279 16.3069 78.4279 15.2099 76.5569 15.2099H75.6399V23.9489H71.1599V0.815918H76.9599C81.9539 0.815918 84.1199 3.53392 84.1199 7.60892C84.1199 11.4279 82.3199 13.1539 79.9349 13.4839C82.4349 13.9619 83.5989 15.7199 83.5699 18.5839C83.5399 21.5049 83.5459 23.9409 83.5459 23.9409L79.1279 23.9489ZM76.3379 11.6489C78.7979 11.6489 79.6059 10.6209 79.6059 8.08792C79.6059 5.77392 78.7979 4.48792 76.3379 4.48792H75.6379V11.6479L76.3379 11.6489Z" fill="#FFFFFF"/>
<path d="M93.816 11.4279C94.11 13.6279 94.293 15.5769 94.293 15.5769H94.44C94.44 15.5769 94.623 13.6679 94.954 11.4279L96.5 0.815918H102.889V23.9489H98.483V10.9139C98.483 9.29792 98.556 6.36092 98.556 6.36092H98.41C98.41 6.36092 98.079 9.00492 97.785 10.9139L95.766 23.9489H92.498L90.441 10.9139C90.148 9.00492 89.817 6.36092 89.817 6.36092H89.67C89.67 6.36092 89.744 9.29792 89.744 10.9139V23.9489H85.595V0.815918H92.351L93.816 11.4279Z" fill="#FFFFFF"/>
<path d="M0.599976 30.377V0.333008H25.823V24.689H6.28297L0.599976 30.377ZM1.56596 1.29901V28.046L5.88797 23.723H24.857V1.30001L1.56596 1.29901Z" fill="#FFFFFF"/>
<path d="M19.738 11.4998H15.232L18.502 4.00684L7.927 14.3698H12.708L10.298 21.5468L19.738 11.4998Z" fill="#FFFFFF"/>
</svg>
